<svg width="12" height="10" viewBox="0 0 12 10" fill="none" xmlns="http://www.w3.org/2000/svg">
<path d="M5.07591 7.1875C5.3262 7.44792 5.64157 7.57031 6.02201 7.55469C6.40245 7.53906 6.67777 7.39583 6.84797 7.125L10.2119 1.875L5.16601 5.375C4.90571 5.5625 4.76304 5.84635 4.73801 6.22656C4.71298 6.60677 4.82562 6.92708 5.07591 7.1875ZM1.86217 10C1.64191 10 1.43917 9.95052 1.25396 9.85156C1.06874 9.7526 0.921072 9.60417 0.810944 9.40625C0.550641 8.91667 0.350408 8.40885 0.210245 7.88281C0.0700816 7.35677 0 6.8125 0 6.25C0 5.38542 0.157684 4.57292 0.473051 3.8125C0.788418 3.05208 1.21642 2.39062 1.75704 1.82812C2.29767 1.26562 2.93341 0.820312 3.66426 0.492188C4.39511 0.164062 5.17602 0 6.00699 0C6.82795 0 7.59884 0.161458 8.31968 0.484375C9.04052 0.807292 9.67126 1.2474 10.2119 1.80469C10.7525 2.36198 11.183 3.01302 11.5034 3.75781C11.8238 4.5026 11.989 5.30208 11.999 6.15625C12.009 6.72917 11.9464 7.28906 11.8112 7.83594C11.6761 8.38281 11.4683 8.90625 11.188 9.40625C11.0779 9.60417 10.9302 9.7526 10.745 9.85156C10.5598 9.95052 10.3571 10 10.1368 10H1.86217Z" fill="#FFCC00"/>
</svg>
