<svg width="11" height="11" viewBox="0 0 11 11" fill="none" xmlns="http://www.w3.org/2000/svg">
<path d="M5.76652 9.17272C6.15419 9.17272 6.5322 9.1154 6.90056 9.00076C7.26884 8.88612 7.61366 8.72158 7.93502 8.50715C7.61366 8.29272 7.26884 8.12818 6.90056 8.01354C6.5322 7.8989 6.15419 7.84158 5.76652 7.84158C5.37885 7.84158 5.00084 7.8989 4.63248 8.01354C4.2642 8.12818 3.91938 8.29272 3.59802 8.50715C3.91938 8.72158 4.2642 8.88612 4.63248 9.00076C5.00084 9.1154 5.37885 9.17272 5.76652 9.17272ZM7.34141 5.22772L6.40859 4.29593C6.43282 4.25559 6.44897 4.21122 6.45705 4.16282C6.46513 4.11441 6.46916 4.06601 6.46916 4.0176C6.46916 3.82261 6.40084 3.6569 6.26419 3.52048C6.12761 3.38398 5.96173 3.31573 5.76652 3.31573C5.71806 3.31573 5.6696 3.31977 5.62115 3.32783C5.57269 3.3359 5.52827 3.35204 5.48789 3.37624L4.55507 2.44444C4.73275 2.3073 4.92456 2.20444 5.13051 2.13586C5.33645 2.06729 5.54846 2.033 5.76652 2.033C6.32379 2.033 6.79424 2.22461 7.17786 2.60781C7.56149 2.99102 7.7533 3.46095 7.7533 4.0176C7.7533 4.23542 7.71898 4.44719 7.65033 4.65292C7.58168 4.85864 7.47871 5.05024 7.34141 5.22772ZM10.1641 8.0473L9.23128 7.11551C9.39281 6.82508 9.51395 6.52255 9.59471 6.20792C9.67548 5.89329 9.71586 5.56656 9.71586 5.22772C9.71586 4.13055 9.33223 3.19875 8.56498 2.43234C7.79772 1.66593 6.8649 1.28273 5.76652 1.28273C5.43313 1.28273 5.10749 1.32508 4.7896 1.40979C4.47172 1.4945 4.17144 1.61753 3.88877 1.77888L2.94383 0.834983C3.37188 0.568757 3.82214 0.363036 4.2946 0.217822C4.76707 0.0726073 5.25771 0 5.76652 0C6.49048 0 7.17084 0.137228 7.80758 0.411683C8.44432 0.686139 8.99819 1.05861 9.46921 1.52911C9.94022 1.9996 10.3131 2.55287 10.5879 3.18891C10.8626 3.82495 11 4.50455 11 5.22772C11 5.73597 10.9273 6.22607 10.7819 6.69802C10.6366 7.16997 10.4306 7.61973 10.1641 8.0473ZM5.76652 10.4554C5.04256 10.4554 4.3622 10.3182 3.72546 10.0438C3.08872 9.76931 2.53485 9.39683 2.06383 8.92634C1.59282 8.45584 1.21993 7.90257 0.945176 7.26653C0.670418 6.63049 0.53304 5.95089 0.53304 5.22772C0.53304 4.72754 0.602739 4.24321 0.742137 3.77473C0.881535 3.30617 1.08643 2.86274 1.35683 2.44444L0 1.07701L0.90859 0.169417L10.8425 10.0924L9.93392 11L2.28965 3.37624C2.12812 3.6586 2.00899 3.9571 1.93227 4.27173C1.85554 4.58636 1.81718 4.90672 1.81718 5.23281C1.81718 5.66506 1.88785 6.08287 2.02919 6.48625C2.17052 6.88962 2.37041 7.26476 2.62885 7.61166C3.088 7.26912 3.58328 7.00801 4.1147 6.82835C4.64613 6.64869 5.19669 6.55886 5.7664 6.55886C6.08953 6.55886 6.40859 6.59113 6.72357 6.65567C7.03855 6.72021 7.34949 6.80895 7.65639 6.92189L9.54626 8.80968C9.0536 9.33407 8.47985 9.73946 7.82502 10.0259C7.17027 10.3122 6.4841 10.4554 5.76652 10.4554Z" fill="#FF9500"/>
</svg>
