<svg width="10" height="13" viewBox="0 0 10 13" fill="none" xmlns="http://www.w3.org/2000/svg">
<path d="M9.57527 5.88319C9.29951 5.24831 8.89863 4.67848 8.39772 4.20933L7.98437 3.82138C7.97033 3.80857 7.95344 3.79948 7.93517 3.7949C7.9169 3.79033 7.89781 3.79041 7.87958 3.79515C7.86135 3.79988 7.84453 3.80912 7.8306 3.82206C7.81668 3.83499 7.80607 3.85122 7.79971 3.86933L7.61505 4.4113C7.49999 4.7513 7.28834 5.09857 6.98863 5.44003C6.96874 5.46182 6.94602 5.46763 6.93039 5.46909C6.91477 5.47054 6.89062 5.46763 6.86931 5.44729C6.84942 5.42986 6.83948 5.4037 6.8409 5.37755C6.89346 4.50284 6.63778 3.51625 6.07812 2.44248C5.61505 1.55034 4.97159 0.854348 4.16761 0.369045L3.58096 0.0159658C3.50426 -0.0305303 3.40625 0.0304958 3.41051 0.122035L3.44176 0.819476C3.46306 1.29606 3.40909 1.71743 3.28125 2.06761C3.125 2.49624 2.90057 2.89436 2.61363 3.2518C2.41395 3.50022 2.18763 3.7249 1.93892 3.92164C1.33992 4.39265 0.852859 4.99618 0.514204 5.68704C0.176383 6.38392 0.00041216 7.15117 0 7.92902C0 8.61484 0.132102 9.27886 0.393465 9.9051C0.645832 10.5081 1.01003 11.0553 1.46591 11.5165C1.92613 11.9814 2.46022 12.3476 3.05539 12.6019C3.67187 12.8663 4.32528 13 4.99999 13C5.67471 13 6.32812 12.8663 6.9446 12.6033C7.5383 12.3505 8.07818 11.9819 8.53408 11.5179C8.99431 11.053 9.3551 10.5096 9.60652 9.90656C9.86749 9.28202 10.0014 8.60966 9.99999 7.93047C9.99999 7.22141 9.85794 6.53268 9.57527 5.88319Z" fill="#E47577"/>
</svg>
